<svg width="306" height="61" viewBox="0 0 306 61" fill="none" xmlns="http://www.w3.org/2000/svg">
<path d="M46.9319 12.44C46.5052 13.24 45.7852 13.9867 44.7719 14.68C43.7585 15.3733 42.5319 15.8267 41.0919 16.04C40.8252 14.76 40.3719 13.4533 39.7319 12.12C39.1452 10.7333 38.2652 9.48 37.0919 8.36C35.9719 7.24 34.5319 6.30666 32.7719 5.56C31.0652 4.81333 28.9585 4.44 26.4519 4.44C24.2119 4.44 21.9719 4.89333 19.7319 5.8C17.4919 6.65333 15.4652 8.04 13.6519 9.96C11.8385 11.88 10.3452 14.3867 9.17188 17.48C8.05188 20.52 7.49188 24.2267 7.49188 28.6C7.49188 32.92 8.07854 36.76 9.25188 40.12C10.4252 43.48 12.0252 46.3067 14.0519 48.6C16.0785 50.84 18.4252 52.5467 21.0919 53.72C23.8119 54.8933 26.7185 55.48 29.8119 55.48C33.3852 55.48 36.3985 54.8933 38.8519 53.72C41.3585 52.4933 43.4652 50.8933 45.1719 48.92C45.4919 49.0267 45.8652 49.24 46.2919 49.56C46.7185 49.88 46.9852 50.2 47.0919 50.52C46.6652 51.2667 45.9719 52.2 45.0119 53.32C44.0519 54.44 42.7452 55.5333 41.0919 56.6C39.4919 57.6133 37.4652 58.4933 35.0119 59.24C32.6119 60.04 29.7319 60.44 26.3719 60.44C23.0652 60.44 19.8652 59.8533 16.7719 58.68C13.6785 57.4533 10.9319 55.64 8.53188 53.24C6.13188 50.7867 4.21188 47.7467 2.77188 44.12C1.33188 40.44 0.611875 36.1733 0.611875 31.32C0.611875 27.0533 1.38521 23.0533 2.93188 19.32C4.47854 15.5333 6.55854 12.2533 9.17188 9.48C11.8385 6.70667 14.9052 4.52 18.3719 2.92C21.8919 1.32 25.6252 0.52 29.5719 0.52C32.7719 0.52 35.4652 0.973332 37.6519 1.88C39.8919 2.78666 41.6785 3.88 43.0119 5.16C44.3985 6.44 45.3852 7.77333 45.9719 9.16C46.6119 10.4933 46.9319 11.5867 46.9319 12.44Z" fill="#408F95"/>
<path d="M60.9813 36.68C60.9813 40.04 61.3813 42.9733 62.1813 45.48C63.0346 47.9867 64.1279 50.0933 65.4613 51.8C66.8479 53.4533 68.4213 54.7067 70.1813 55.56C71.9946 56.4133 73.8879 56.84 75.8613 56.84C80.1279 56.84 83.3813 55.4267 85.6213 52.6C87.8613 49.72 88.9813 45.4 88.9813 39.64C88.9813 36.8667 88.6613 34.28 88.0213 31.88C87.3813 29.48 86.4213 27.4 85.1413 25.64C83.9146 23.88 82.3946 22.4933 80.5813 21.48C78.7679 20.4667 76.6879 19.96 74.3413 19.96C72.6346 19.96 70.9813 20.28 69.3813 20.92C67.7813 21.56 66.3679 22.5733 65.1413 23.96C63.9146 25.2933 62.9013 27.0267 62.1013 29.16C61.3546 31.24 60.9813 33.7467 60.9813 36.68ZM54.2613 39.16C54.2613 35.9067 54.8479 32.8933 56.0213 30.12C57.1946 27.2933 58.7679 24.8933 60.7413 22.92C62.7679 20.8933 65.1146 19.32 67.7813 18.2C70.5013 17.0267 73.3813 16.44 76.4213 16.44C79.7279 16.44 82.5813 17 84.9813 18.12C87.4346 19.24 89.4346 20.7333 90.9813 22.6C92.5813 24.4667 93.7546 26.6533 94.5013 29.16C95.3013 31.6667 95.7013 34.3067 95.7013 37.08C95.7013 40.3333 95.1946 43.3733 94.1813 46.2C93.1679 49.0267 91.7013 51.5067 89.7812 53.64C87.9146 55.72 85.6213 57.3733 82.9013 58.6C80.1813 59.8267 77.0879 60.44 73.6213 60.44C71.0613 60.44 68.6079 59.96 66.2613 59C63.9146 58.04 61.8346 56.6533 60.0213 54.84C58.2613 53.0267 56.8479 50.8133 55.7813 48.2C54.7679 45.5333 54.2613 42.52 54.2613 39.16ZM137.136 34.04C137.136 29.5067 136.202 26.2 134.336 24.12C132.469 21.9867 129.829 20.92 126.416 20.92C125.189 20.92 123.962 21.16 122.736 21.64C121.562 22.0667 120.416 22.6533 119.296 23.4C118.229 24.1467 117.216 25.0267 116.256 26.04C115.296 27 114.442 28.0133 113.696 29.08V58.36C112.949 58.7867 111.962 59.08 110.736 59.24C109.562 59.4533 108.442 59.56 107.376 59.56V18.6C109.136 17.6933 111.109 17.24 113.296 17.24V25.16C113.989 24.2533 114.869 23.2933 115.936 22.28C117.056 21.2133 118.282 20.2533 119.616 19.4C121.002 18.5467 122.496 17.8533 124.096 17.32C125.749 16.7333 127.509 16.44 129.376 16.44C133.696 16.44 137.109 17.7467 139.616 20.36C142.176 22.9733 143.456 26.7067 143.456 31.56V58.36C142.709 58.7867 141.722 59.08 140.496 59.24C139.322 59.4533 138.202 59.56 137.136 59.56V34.04ZM152.401 20.52C152.827 19.9333 153.494 19.4 154.401 18.92C155.361 18.3867 156.401 18.12 157.521 18.12H160.081V6.6C160.934 5.90666 161.921 5.4 163.041 5.08C164.214 4.70666 165.334 4.52 166.401 4.52V18.12H182.081C182.027 19.0267 181.761 19.8 181.281 20.44C180.854 21.0267 180.294 21.32 179.601 21.32H166.401V47.56C166.401 49.2667 166.587 50.6533 166.961 51.72C167.387 52.7333 167.947 53.5333 168.641 54.12C169.334 54.7067 170.134 55.1067 171.041 55.32C171.947 55.5333 172.881 55.64 173.841 55.64C175.601 55.64 177.067 55.2933 178.241 54.6C179.414 53.9067 180.374 53.1867 181.121 52.44C181.867 52.6533 182.347 53.1067 182.561 53.8C182.294 54.2267 181.867 54.7867 181.281 55.48C180.694 56.1733 179.921 56.8667 178.961 57.56C178.001 58.2 176.854 58.76 175.521 59.24C174.187 59.72 172.694 59.96 171.041 59.96C169.547 59.96 168.134 59.7733 166.801 59.4C165.467 59.0267 164.294 58.4133 163.281 57.56C162.321 56.7067 161.547 55.56 160.961 54.12C160.374 52.68 160.081 50.8933 160.081 48.76V21.32H152.401V20.52ZM227.421 56.04C227.261 56.3067 226.995 56.6267 226.621 57C226.301 57.3733 225.928 57.7467 225.501 58.12C225.075 58.44 224.595 58.7333 224.061 59C223.581 59.2667 223.128 59.4533 222.701 59.56C220.995 59.4533 219.555 58.8133 218.381 57.64C217.208 56.4133 216.568 54.8133 216.461 52.84C216.035 53.64 215.395 54.4933 214.541 55.4C213.688 56.2533 212.648 57.0533 211.421 57.8C210.248 58.4933 208.888 59.0533 207.341 59.48C205.795 59.96 204.115 60.2 202.301 60.2C198.515 60.2 195.501 59.24 193.261 57.32C191.075 55.4 189.981 52.84 189.981 49.64C189.981 46.3333 191.235 43.56 193.741 41.32C196.248 39.08 200.541 37.4267 206.621 36.36L216.141 34.68V31.56C216.141 27.72 215.235 24.7867 213.421 22.76C211.661 20.7333 209.021 19.72 205.501 19.72C203.315 19.72 201.448 20.28 199.901 21.4C198.408 22.4667 197.661 24.0667 197.661 26.2C197.661 27.16 197.981 28.0133 198.621 28.76C198.141 29.4 197.368 29.9867 196.301 30.52C195.235 31.0533 194.141 31.3733 193.021 31.48C192.755 31.2133 192.435 30.8133 192.061 30.28C191.688 29.7467 191.501 29.0267 191.501 28.12C191.501 26.4667 191.981 24.92 192.941 23.48C193.901 22.04 195.155 20.8133 196.701 19.8C198.248 18.7333 200.035 17.9067 202.061 17.32C204.088 16.7333 206.195 16.44 208.381 16.44C213.501 16.44 217.128 17.6133 219.261 19.96C221.395 22.2533 222.461 25.48 222.461 29.64V49.72C222.461 51.9067 222.941 53.4267 223.901 54.28C224.861 55.08 225.981 55.56 227.261 55.72L227.421 56.04ZM204.861 55.96C207.635 55.96 209.981 55.32 211.901 54.04C213.875 52.76 215.288 51.1067 216.141 49.08V37.56L205.421 39.48C202.541 40.0133 200.328 40.92 198.781 42.2C197.288 43.48 196.541 45.32 196.541 47.72C196.541 50.3867 197.341 52.44 198.941 53.88C200.595 55.2667 202.568 55.96 204.861 55.96ZM269.621 25.88C269.301 26.4667 268.661 27.08 267.701 27.72C266.795 28.36 265.648 28.76 264.261 28.92C264.101 28.0133 263.781 27.0533 263.301 26.04C262.875 24.9733 262.235 24.0133 261.381 23.16C260.528 22.2533 259.461 21.5333 258.181 21C256.901 20.4133 255.355 20.12 253.541 20.12C252.048 20.12 250.528 20.4133 248.981 21C247.488 21.5867 246.128 22.5467 244.901 23.88C243.675 25.2133 242.661 26.92 241.861 29C241.115 31.08 240.741 33.6133 240.741 36.6C240.741 39.8 241.168 42.6 242.021 45C242.875 47.3467 244.021 49.32 245.461 50.92C246.901 52.4667 248.555 53.64 250.421 54.44C252.341 55.1867 254.341 55.56 256.421 55.56C259.141 55.56 261.435 55.16 263.301 54.36C265.221 53.5067 266.848 52.3067 268.181 50.76C268.501 50.8133 268.821 51 269.141 51.32C269.461 51.64 269.675 51.9333 269.781 52.2C269.355 52.9467 268.688 53.8 267.781 54.76C266.928 55.6667 265.835 56.52 264.501 57.32C263.168 58.12 261.621 58.7867 259.861 59.32C258.101 59.9067 256.101 60.2 253.861 60.2C251.195 60.2 248.661 59.7467 246.261 58.84C243.915 57.9333 241.835 56.5733 240.021 54.76C238.261 52.9467 236.848 50.7333 235.781 48.12C234.768 45.5067 234.261 42.4667 234.261 39C234.261 35.96 234.821 33.1067 235.941 30.44C237.061 27.72 238.581 25.3467 240.501 23.32C242.475 21.24 244.795 19.6133 247.461 18.44C250.128 17.2133 253.008 16.6 256.101 16.6C258.661 16.6 260.795 16.9733 262.501 17.72C264.208 18.4133 265.568 19.2667 266.581 20.28C267.648 21.24 268.421 22.2533 268.901 23.32C269.381 24.3867 269.621 25.24 269.621 25.88ZM275.448 20.52C275.874 19.9333 276.541 19.4 277.448 18.92C278.408 18.3867 279.448 18.12 280.568 18.12H283.128V6.6C283.981 5.90666 284.968 5.4 286.088 5.08C287.261 4.70666 288.381 4.52 289.448 4.52V18.12H305.128C305.074 19.0267 304.808 19.8 304.328 20.44C303.901 21.0267 303.341 21.32 302.648 21.32H289.448V47.56C289.448 49.2667 289.634 50.6533 290.008 51.72C290.434 52.7333 290.994 53.5333 291.688 54.12C292.381 54.7067 293.181 55.1067 294.088 55.32C294.994 55.5333 295.928 55.64 296.888 55.64C298.648 55.64 300.114 55.2933 301.288 54.6C302.461 53.9067 303.421 53.1867 304.168 52.44C304.914 52.6533 305.394 53.1067 305.608 53.8C305.341 54.2267 304.914 54.7867 304.328 55.48C303.741 56.1733 302.968 56.8667 302.008 57.56C301.048 58.2 299.901 58.76 298.568 59.24C297.234 59.72 295.741 59.96 294.088 59.96C292.594 59.96 291.181 59.7733 289.848 59.4C288.514 59.0267 287.341 58.4133 286.328 57.56C285.368 56.7067 284.594 55.56 284.008 54.12C283.421 52.68 283.128 50.8933 283.128 48.76V21.32H275.448V20.52Z" fill="#0D2936"/>
</svg>
